<?xml version="1.0" standalone="no"?>
<!DOCTYPE svg PUBLIC "-//W3C//DTD SVG 20010904//EN"
 "http://www.w3.org/TR/2001/REC-SVG-20010904/DTD/svg10.dtd">
<svg version="1.0" xmlns="http://www.w3.org/2000/svg"
 width="300.000000pt" height="132.000000pt" viewBox="0 0 300.000000 132.000000"
 preserveAspectRatio="xMidYMid meet">

<g transform="translate(0.000000,132.000000) scale(0.100000,-0.100000)"
fill="#000000" stroke="none">
<path d="M379 1011 c-97 -31 -147 -139 -104 -222 17 -33 77 -79 127 -99 82
-33 110 -77 72 -114 -24 -25 -101 -20 -153 9 -23 14 -46 25 -50 25 -3 0 -18
-22 -34 -49 l-27 -49 37 -22 c123 -73 301 -55 354 35 l22 36 18 -41 c24 -54
69 -74 169 -74 88 0 137 19 164 65 14 24 20 60 24 160 l5 129 -62 0 -61 0 0
-109 c0 -125 -12 -152 -68 -153 -61 -2 -72 20 -72 149 l0 113 -60 0 -60 0 0
-65 0 -66 -32 36 c-18 21 -67 54 -117 79 -93 46 -109 69 -75 107 21 23 57 24
114 4 23 -8 46 -15 49 -15 4 0 17 20 29 46 l22 45 -46 21 c-52 22 -145 32
-185 19z"/>
<path d="M1194 800 c-17 -6 -37 -17 -44 -25 -17 -21 -30 -19 -30 5 0 18 -7 20
-55 20 l-55 0 0 -260 0 -260 60 0 60 0 0 100 0 101 33 -18 c46 -24 125 -22
168 4 104 65 107 250 4 313 -38 24 -100 32 -141 20z m71 -115 c34 -33 34 -87
0 -120 -51 -52 -139 -14 -139 60 0 74 88 112 139 60z"/>
<path d="M1560 570 c-30 -30 -27 -83 6 -109 36 -29 60 -26 96 9 24 25 29 36
24 58 -14 58 -86 82 -126 42z"/>
<path d="M1836 507 c-26 -58 -34 -87 -15 -54 6 10 22 17 39 17 17 0 33 -7 39
-17 20 -35 10 11 -13 62 l-24 50 -26 -58z m38 7 c10 -26 7 -34 -14 -34 -11 0
-20 4 -20 9 0 17 12 41 20 41 4 0 11 -7 14 -16z"/>
<path d="M2051 498 c1 -35 4 -51 6 -35 4 22 9 27 33 27 22 0 29 -6 34 -26 4
-15 9 -24 12 -22 2 3 0 16 -5 30 -6 15 -5 31 1 42 14 25 -8 46 -48 46 l-34 0
1 -62z m72 40 c8 -24 -5 -38 -34 -38 -24 0 -29 4 -29 25 0 21 5 25 29 25 16 0
31 -6 34 -12z"/>
<path d="M2297 553 c19 -4 23 -12 26 -61 l3 -57 2 57 c2 50 5 57 25 61 12 2 0
4 -28 4 -27 0 -40 -2 -28 -4z"/>
</g>
</svg>
